<svg width="1728" height="805" viewBox="0 0 1728 805" fill="none" xmlns="http://www.w3.org/2000/svg">
<path d="M1749.61 18.3781C1162.05 500.389 768.22 672.851 2.82743 801.848C-6.91986 803.491 -16 796.004 -16 786.119V6C-16 -2.83656 -8.83654 -10 2.09808e-05 -10H1739.67C1754.65 -10 1761.19 8.87691 1749.61 18.3781Z" fill="url(#paint0_linear_242_11)"/>
<circle cx="675" cy="427" r="2" fill="#E7E6E6" fill-opacity="0.2"/>
<circle cx="712" cy="351" r="2" fill="#E7E6E6" fill-opacity="0.2"/>
<circle cx="813" cy="272" r="2" fill="#E7E6E6" fill-opacity="0.2"/>
<circle cx="790" cy="314" r="2" fill="#E7E6E6" fill-opacity="0.2"/>
<circle cx="70" cy="244" r="2" fill="#E7E6E6" fill-opacity="0.2"/>
<circle cx="308" cy="32" r="2" fill="#E7E6E6" fill-opacity="0.2"/>
<circle cx="835" cy="469" r="2" fill="#E7E6E6" fill-opacity="0.2"/>
<circle cx="1073" cy="257" r="2" fill="#E7E6E6" fill-opacity="0.2"/>
<circle cx="545" cy="209" r="2" fill="#E7E6E6" fill-opacity="0.2"/>
<circle cx="642" cy="395" r="2" fill="#E7E6E6" fill-opacity="0.2"/>
<circle cx="114" cy="347" r="2" fill="#E7E6E6" fill-opacity="0.2"/>
<circle cx="880" cy="183" r="2" fill="#E7E6E6" fill-opacity="0.2"/>
<circle cx="352" cy="135" r="2" fill="#E7E6E6" fill-opacity="0.2"/>
<circle cx="679" cy="319" r="2" fill="#E7E6E6" fill-opacity="0.2"/>
<circle cx="917" cy="107" r="2" fill="#E7E6E6" fill-opacity="0.2"/>
<circle cx="780" cy="240" r="2" fill="#E7E6E6" fill-opacity="0.2"/>
<circle cx="757" cy="282" r="2" fill="#E7E6E6" fill-opacity="0.2"/>
<circle cx="37" cy="212" r="2" fill="#E7E6E6" fill-opacity="0.2"/>
<circle cx="802" cy="437" r="2" fill="#E7E6E6" fill-opacity="0.2"/>
<circle cx="839" cy="361" r="2" fill="#E7E6E6" fill-opacity="0.2"/>
<circle cx="940" cy="282" r="2" fill="#E7E6E6" fill-opacity="0.2"/>
<circle cx="917" cy="324" r="2" fill="#E7E6E6" fill-opacity="0.2"/>
<circle cx="197" cy="254" r="2" fill="#E7E6E6" fill-opacity="0.2"/>
<circle cx="789" cy="456" r="2" fill="#E7E6E6" fill-opacity="0.2"/>
<circle cx="826" cy="380" r="2" fill="#E7E6E6" fill-opacity="0.2"/>
<circle cx="927" cy="301" r="2" fill="#E7E6E6" fill-opacity="0.2"/>
<circle cx="904" cy="343" r="2" fill="#E7E6E6" fill-opacity="0.2"/>
<circle cx="184" cy="273" r="2" fill="#E7E6E6" fill-opacity="0.2"/>
<defs>
<linearGradient id="paint0_linear_242_11" x1="1242" y1="274.199" x2="1407.27" y2="525.492" gradientUnits="userSpaceOnUse">
<stop stop-color="#121416"/>
<stop offset="1" stop-color="#121416" stop-opacity="0.76"/>
</linearGradient>
</defs>
</svg>
