<svg width="40" height="38" viewBox="0 0 40 38" fill="none" xmlns="http://www.w3.org/2000/svg">
<path d="M4 0C1.78 0 0 1.78 0 4V24C0 25.0609 0.421427 26.0783 1.17157 26.8284C1.92172 27.5786 2.93913 28 4 28H20V38L26 32L32 38V28H36C37.0609 28 38.0783 27.5786 38.8284 26.8284C39.5786 26.0783 40 25.0609 40 24V4C40 2.93913 39.5786 1.92172 38.8284 1.17157C38.0783 0.421427 37.0609 0 36 0H4ZM20 4L26 8L32 4V11L38 14L32 17V24L26 20L20 24V17L14 14L20 11V4ZM4 4H14V8H4V4ZM4 12H10V16H4V12ZM4 20H14V24H4V20Z" fill="white"/>
</svg>
