<svg width="40" height="40" viewBox="0 0 40 40" fill="none" xmlns="http://www.w3.org/2000/svg">
<path d="M18 24H14C14 19.2261 15.8964 14.6477 19.2721 11.2721C22.6477 7.89642 27.2261 6 32 6V10C24.26 10 18 16.26 18 24ZM32 18V14C26.48 14 22 18.48 22 24H26C26 20.68 28.68 18 32 18ZM10 4C10 1.78 8.22 0 6 0C3.78 0 2 1.78 2 4C2 6.22 3.78 8 6 8C8.22 8 10 6.22 10 4ZM18.9 5H14.9C14.6679 6.3971 13.9475 7.66648 12.867 8.58212C11.7866 9.49775 10.4162 10.0002 9 10H0V18H12V13.48C13.8531 12.8956 15.4942 11.7809 16.7205 10.2738C17.9469 8.76667 18.7046 6.93317 18.9 5ZM34 30C36.22 30 38 28.22 38 26C38 23.78 36.22 22 34 22C31.78 22 30 23.78 30 26C30 28.22 31.78 30 34 30ZM31 32C29.5838 32.0002 28.2134 31.4977 27.133 30.5821C26.0525 29.6665 25.3321 28.3971 25.1 27H21.1C21.2954 28.9332 22.0531 30.7667 23.2795 32.2738C24.5058 33.7809 26.1469 34.8956 28 35.48V40H40V32H31Z" fill="white"/>
</svg>
