<svg width="48" height="40" viewBox="0 0 48 40" fill="none" xmlns="http://www.w3.org/2000/svg">
<path d="M24 20L6.096 12.848L7.2 39.2H2.4L3.552 11.816L0 10.4L24 0.800003L48 10.4L24 20ZM24 8C22.68 8 21.6 8.528 21.6 9.2C21.6 9.872 22.68 10.4 24 10.4C25.32 10.4 26.4 9.872 26.4 9.2C26.4 8.528 25.32 8 24 8ZM24 22.4L37.368 17.048C39.072 19.304 40.248 22.016 40.632 24.968C39.912 24.872 39.168 24.8 38.4 24.8C32.28 24.8 26.928 28.088 24 32.984C22.5138 30.4898 20.4054 28.4243 17.8811 26.9897C15.3569 25.5551 12.5034 24.8006 9.6 24.8C8.832 24.8 8.088 24.872 7.368 24.968C7.752 22.016 8.928 19.304 10.632 17.048L24 22.4Z" fill="white"/>
</svg>
