<svg width="131" height="76" viewBox="0 0 131 76" fill="none" xmlns="http://www.w3.org/2000/svg">
<path d="M16.0423 62.0212C13.6485 62.0212 11.467 61.5579 9.49796 60.6313C7.52887 59.666 5.96518 58.3726 4.80689 56.751C3.64861 55.0908 3.06946 53.2375 3.06946 51.1912V43.4886C3.06946 41.3265 3.66791 39.3767 4.86481 37.6393C6.06171 35.9018 7.6447 34.5312 9.61379 33.5274C11.6215 32.5235 13.7836 32.0216 16.1002 32.0216C18.3782 32.0216 20.4631 32.5042 22.355 33.4694C24.2854 34.3961 25.8105 35.7088 26.9302 37.4076C28.0499 39.0678 28.6097 40.979 28.6097 43.1411V46.3843C28.6097 47.2338 28.2815 47.948 27.6252 48.5272C27.0074 49.1063 26.2159 49.3959 25.2507 49.3959H10.0771V50.67C10.0771 52.3302 10.579 53.6816 11.5829 54.724C12.5867 55.7665 14.0925 56.2877 16.1002 56.2877C18.0307 56.2877 19.4592 55.863 20.3859 55.0136C21.3511 54.1642 21.8337 53.0638 21.8337 51.7125C22.5287 51.6352 23.0113 51.5966 23.2816 51.5966C24.7101 51.5966 25.8298 51.9248 26.6406 52.5812C27.4514 53.1989 27.8568 54.087 27.8568 55.2452C27.8568 56.3649 27.3356 57.446 26.2931 58.4885C25.2507 59.5309 23.8221 60.3803 22.0075 61.0367C20.1928 61.693 18.2044 62.0212 16.0423 62.0212ZM22.0654 44.2415V43.1411C22.0654 41.5195 21.5055 40.2068 20.3859 39.203C19.2662 38.1991 17.8183 37.6972 16.0423 37.6972C14.2662 37.6972 12.8184 38.1991 11.6987 39.203C10.6176 40.1682 10.0771 41.4809 10.0771 43.1411V44.2415H22.0654ZM44.8402 62.0212C42.7553 62.0212 40.8827 61.5772 39.2225 60.6892C37.5623 59.8012 36.2496 58.585 35.2843 57.0406C34.3191 55.4576 33.8365 53.6429 33.8365 51.5966V42.4462C33.8365 40.4385 34.3384 38.6431 35.3423 37.0601C36.3461 35.4771 37.736 34.2416 39.5121 33.3536C41.3267 32.4656 43.3344 32.0216 45.5352 32.0216C46.9637 32.0216 48.4309 32.3305 49.9367 32.9482C51.4811 33.5274 52.7745 34.3188 53.8169 35.3227L54.0486 35.0331C53.8556 34.7242 53.4308 34.3382 52.7745 33.8748V25.3035C52.7745 23.7591 53.3729 22.5622 54.5698 21.7128C55.8053 20.8634 57.6586 20.4387 60.1296 20.4387V57.0406C60.1296 58.4691 59.5891 59.666 58.508 60.6313C57.4269 61.5579 55.7474 62.0212 53.4695 62.0212V58.8359C53.9714 58.2182 54.3382 57.7163 54.5698 57.3302L54.2803 57.0985C53.0834 58.7201 51.7513 59.9556 50.2842 60.805C48.8556 61.6158 47.041 62.0212 44.8402 62.0212ZM46.983 55.7665C48.7205 55.7665 50.1297 55.3611 51.2108 54.5503C52.3305 53.7009 52.8903 52.6391 52.8903 51.365V42.6199C52.8903 41.3844 52.3305 40.3612 51.2108 39.5504C50.1297 38.701 48.7012 38.2763 46.9251 38.2763C45.0333 38.2763 43.5661 38.6817 42.5236 39.4925C41.5198 40.2647 41.0179 41.3844 41.0179 42.8516V51.0754C41.0179 52.6198 41.5198 53.7974 42.5236 54.6082C43.5661 55.3804 45.0526 55.7665 46.983 55.7665ZM92.5866 56.4035C92.5866 58.2182 92.0074 59.6081 90.8491 60.5734C89.7294 61.5386 88.0113 62.0212 85.6947 62.0212V58.5464C86.1967 57.9672 86.66 57.3302 87.0847 56.6352L86.7372 56.4035C84.2662 60.1487 80.9458 62.0212 76.7759 62.0212C74.8068 62.0212 73.0308 61.5772 71.4478 60.6892C69.9034 59.7626 68.6679 58.4885 67.7413 56.8668C66.8533 55.2452 66.4093 53.4113 66.4093 51.365V36.4231C66.4093 34.8401 66.9884 33.7204 68.1467 33.064C69.3436 32.3691 71.1582 32.0216 73.5906 32.0216V50.8438C73.5906 52.3495 74.0539 53.5464 74.9806 54.4344C75.9072 55.3225 77.2392 55.7665 78.9767 55.7665C80.9072 55.7665 82.4515 55.168 83.6098 53.9711C84.8067 52.7356 85.4052 51.2105 85.4052 49.3959V36.4231C85.4052 34.8401 85.9843 33.7204 87.1426 33.064C88.3009 32.3691 90.1155 32.0216 92.5866 32.0216V56.4035Z" fill="white"/>
<path d="M118.703 61.3038L111.849 51.3761L106.085 61.3038H94.2358L106.021 43.0497L86.4788 12.3773L106.213 25.5643L113.066 35.4279L118.831 25.5643H130.68L118.703 43.5621L131 61.3038H118.703Z" fill="url(#paint0_linear_184_68)"/>
<defs>
<linearGradient id="paint0_linear_184_68" x1="5.98896" y1="12.4777" x2="-64.0045" y2="76.9964" gradientUnits="userSpaceOnUse">
<stop stop-color="#DAA520"/>
<stop offset="0.942708" stop-color="#FFD87A" stop-opacity="0.91"/>
</linearGradient>
</defs>
</svg>
