<svg width="25" height="25" viewBox="0 0 25 25" fill="none" xmlns="http://www.w3.org/2000/svg">
<g clip-path="url(#clip0_124_264)">
<path fill-rule="evenodd" clip-rule="evenodd" d="M22.3984 12.3919C22.3984 12.3919 24.179 10.7721 24.0873 8.95776L23.9794 8.82279C23.6414 9.03424 23.2502 9.14476 22.8516 9.14135L22.5764 9.30876C22.5764 9.30876 22.3444 9.11976 21.9451 9.43294C21.9451 9.43294 21.6052 8.89297 21.2329 9.05497L21.4811 8.80121C21.4811 8.80121 21.3354 8.29903 20.1537 7.72127C19.9242 7.41174 19.7423 7.06959 19.6141 6.70615L19.1501 6.41456C19.1501 6.41456 19.0799 5.98259 19.0259 5.51282C19.0259 5.51282 18.7723 5.17806 18.4864 5.15647C18.4462 4.96082 18.4227 4.76212 18.4162 4.5625C18.4162 4.5625 18.1842 4.5625 17.8442 3.80656C17.6994 3.54038 17.5314 3.28744 17.3424 3.05062L17.1751 2.73204L17.2669 2.60245C17.2669 2.60245 17.6446 3.23421 17.9144 3.34221C18.0269 3.16256 18.0866 2.95485 18.0866 2.74284C18.0866 2.53083 18.0269 2.32311 17.9144 2.14348C17.7578 2.19689 17.5916 2.21632 17.427 2.20049C17.2623 2.18466 17.1029 2.13394 16.9593 2.05169C16.6948 2.10383 16.4399 2.19673 16.2039 2.32707C16.1185 2.26664 16.019 2.22939 15.9149 2.21898C15.8109 2.20857 15.706 2.22535 15.6104 2.26767C15.6104 2.26767 15.7344 1.97069 14.5689 2.02469L14.9035 1.9437L14.2074 1.81411C14.2284 1.78606 14.2398 1.75196 14.2398 1.71691C14.2398 1.68186 14.2284 1.64776 14.2074 1.61972C14.0092 1.52685 13.7828 1.51434 13.5756 1.58479C13.3684 1.65525 13.1965 1.80322 13.0959 1.99769C13.0959 1.99769 13.3926 2.29467 12.9286 2.46746C12.6055 2.26005 12.2329 2.14263 11.8494 2.12728C11.7283 2.01666 11.6484 1.86815 11.6228 1.70611C11.3896 1.58061 11.1172 1.54968 10.8619 1.61972C10.8619 1.61972 10.6299 1.24175 10.3224 1.36594C10.3224 1.36594 9.85291 1.10676 10.4303 0.825979C10.4648 0.738785 10.4657 0.641862 10.4328 0.554047C10.3999 0.466229 10.3355 0.393794 10.2522 0.350815C10.2522 0.350815 10.4411 0.350812 10.4681 0.0592344C10.3473 0.00685031 10.2144 -0.0112856 10.0841 0.0068088C9.95368 0.0249032 9.83076 0.0785321 9.72879 0.161828C9.58568 0.0866241 9.42641 0.047333 9.26476 0.047333C9.10309 0.047333 8.94385 0.0866241 8.8007 0.161828C8.52626 0.0626794 8.23403 0.0224933 7.94303 0.0438912C7.65203 0.0652888 7.36882 0.14779 7.11179 0.286019H6.73947C6.53235 0.422947 6.28315 0.481327 6.03679 0.450638C5.79044 0.419947 5.56315 0.302203 5.39591 0.11863C5.183 0.221879 5.01856 0.403876 4.93723 0.626191C4.63956 0.831162 4.31438 0.992953 3.97138 1.10676C3.85379 1.2178 3.76012 1.35171 3.69612 1.50027C3.63209 1.64883 3.59906 1.80891 3.59906 1.97069C3.31429 2.28914 2.93683 2.51011 2.51989 2.60245C2.33461 2.73721 2.19521 2.92571 2.12059 3.14241C2.12059 3.14241 1.72129 3.14241 1.48927 3.79576C1.09656 4.09179 0.772571 4.46941 0.539591 4.90268C0.539591 4.90268 1.02522 5.826 0 7.25691L0.253607 7.68888L0.0647512 8.19644C0.0647512 8.19644 0.928094 8.488 1.21947 10.0215C1.21947 10.0215 1.95871 10.5615 2.88681 11.204C2.88681 11.204 4.3275 10.7882 4.98582 11.0744C5.28632 10.9603 5.54185 10.7519 5.71426 10.4805C5.84188 10.2489 5.901 9.98588 5.88476 9.722C5.86853 9.45809 5.77756 9.20427 5.62253 8.99018C5.555 8.90438 5.52197 8.79644 5.52997 8.68753C5.53797 8.57862 5.58638 8.47662 5.66571 8.40162C6.36921 7.69135 7.24494 7.176 8.20718 6.90594C8.26021 6.88662 8.31665 6.87832 8.37303 6.88159C8.42938 6.88482 8.4845 6.89953 8.535 6.92479C8.58547 6.95006 8.63029 6.98535 8.66671 7.02853C8.70312 7.07171 8.73035 7.12185 8.74676 7.17591C8.85935 7.4195 9.03888 7.62603 9.26435 7.77135C9.48985 7.91668 9.752 7.99482 10.0202 7.99665C10.2871 7.99538 10.5481 7.91735 10.7719 7.77182C10.9958 7.62632 11.1731 7.41947 11.2828 7.17591C11.3267 7.07465 11.4049 6.99206 11.5036 6.94271C11.6022 6.89332 11.7151 6.88032 11.8224 6.90594C12.7749 7.17624 13.6473 7.67479 14.3639 8.35841C14.4455 8.43206 14.4956 8.53435 14.5036 8.64403C14.5116 8.75368 14.4771 8.86221 14.4071 8.94697C14.2478 9.16024 14.1543 9.41538 14.138 9.68112C14.1217 9.94682 14.1833 10.2115 14.3153 10.4427C14.4412 10.6855 14.6403 10.8824 14.8844 11.0055C15.1285 11.1286 15.4052 11.1716 15.6751 11.1284C15.787 11.1212 15.898 11.1534 15.9886 11.2195C16.0793 11.2856 16.144 11.3814 16.1715 11.4902L16.2147 11.6468C16.3486 12.0665 16.4248 12.5024 16.4413 12.9427C16.4482 13.4448 16.3901 13.9457 16.2686 14.433C16.2464 14.5461 16.1824 14.6466 16.0894 14.7146C15.9964 14.7826 15.8813 14.8132 15.7668 14.8001C15.5024 14.7788 15.2372 14.8299 14.9996 14.9478C14.762 15.0658 14.5609 15.2461 14.4179 15.4697C14.2883 15.7006 14.2281 15.964 14.2443 16.2284C14.2606 16.4927 14.3527 16.7467 14.5096 16.96C14.5806 17.045 14.6162 17.154 14.6092 17.2645C14.6022 17.3751 14.553 17.4787 14.4718 17.5539C13.7326 18.2489 12.8423 18.7627 11.871 19.055H11.7307C11.6433 19.0555 11.5578 19.0294 11.4856 18.9803C11.4133 18.9311 11.3577 18.8611 11.326 18.7796C11.2257 18.5563 11.068 18.3636 10.8689 18.2214C10.6698 18.079 10.4365 17.9922 10.1929 17.9697C10.1064 18.3651 10.0666 18.7692 10.0741 19.1738C10.0741 19.1738 11.04 20.5399 11.04 21.0043C11.0036 21.3424 11.0396 21.6844 11.1456 22.0075C11.2517 22.3306 11.4254 22.6274 11.6551 22.8779C11.8208 23.1746 11.9598 23.4854 12.0706 23.8067C12.1174 23.8315 12.1578 23.8667 12.1887 23.9096C12.2197 23.9525 12.2404 24.0019 12.2493 24.0541C12.2581 24.1063 12.2549 24.1598 12.2399 24.2105C12.2248 24.2612 12.1983 24.3078 12.1624 24.3466C12.1739 24.5116 12.2429 24.6673 12.3572 24.7866C12.4716 24.906 12.6241 24.9815 12.7883 25C13.2446 24.7801 13.7619 24.7211 14.256 24.8326C15.06 25.0216 15.9719 24.0767 16.3874 23.3801L16.8946 23.0021C16.8946 23.0021 17.3101 22.4622 17.0564 22.095C17.0894 22.01 17.1432 21.9347 17.2131 21.8762C17.2829 21.8177 17.3664 21.7778 17.4557 21.7602C17.4557 21.7602 18.4486 21.7602 18.0493 20.3077C18.0493 20.3077 17.6716 20.054 18.5295 19.676C18.6842 19.5783 18.8092 19.4401 18.8911 19.2764C18.8911 19.2764 20.0728 19.0226 20.1968 18.3099C20.1968 18.3099 20.1968 17.3811 20.1968 17.1058C20.1968 17.1058 20.5314 16.8736 19.981 16.6414C19.9904 16.5364 19.9765 16.4306 19.9401 16.3316C19.9037 16.2326 19.8458 16.1429 19.7706 16.0691C19.7706 16.0691 20.1915 15.5993 19.7004 15.3293C19.8694 14.6278 20.2826 14.0094 20.8659 13.5852C21.2247 13.0232 21.7658 12.6019 22.3984 12.3919ZM23.0999 17.7375C23.0999 17.5809 23.2995 17.6187 23.2995 17.6187C23.7689 18.3747 23.4452 18.8229 23.402 18.8822L23.3103 18.6663C23.2621 19.0473 23.1373 19.4147 22.9434 19.7462C22.5387 20.7883 21.9613 22.041 21.9613 22.041C21.7118 22.0634 21.4704 22.1409 21.2544 22.2678C21.2544 22.1868 21.0062 22.041 21.0062 22.041C20.946 21.9569 20.9071 21.8593 20.893 21.7568C20.8789 21.6542 20.89 21.5498 20.9253 21.4525C20.8662 21.2899 20.8506 21.1147 20.8799 20.9443C20.9093 20.7738 20.9826 20.6139 21.0926 20.4805C21.2061 20.3162 21.2794 20.1274 21.3066 19.9295C21.3337 19.7316 21.314 19.5301 21.2491 19.3412C21.248 19.2271 21.2884 19.1164 21.3629 19.03C21.4374 18.9436 21.5408 18.8872 21.6537 18.8714C21.9587 18.7898 22.2441 18.6472 22.4926 18.4523C22.7411 18.2575 22.9476 18.0143 23.0999 17.7375Z" fill="#D9A528"/>
<path d="M15.4754 11.5334C15.4489 11.4403 15.392 11.3589 15.3137 11.3021C15.2354 11.2453 15.1404 11.2165 15.0438 11.2202C14.8087 11.257 14.5681 11.2195 14.3553 11.1131C14.1426 11.0066 13.9683 10.8364 13.8566 10.6262C13.7429 10.4235 13.6904 10.192 13.7058 9.96003C13.7211 9.72803 13.8035 9.50547 13.943 9.31953C13.9762 9.28153 14.0015 9.23727 14.0174 9.18933C14.0332 9.14138 14.0393 9.09077 14.0353 9.04041C14.0313 8.99009 14.0172 8.94106 13.9939 8.89627C13.9707 8.85147 13.9387 8.81177 13.8998 8.77956C13.2753 8.18847 12.5186 7.7553 11.6929 7.51606C11.5984 7.49174 11.4984 7.50238 11.4111 7.54603C11.3239 7.58968 11.2553 7.66341 11.2181 7.75362C11.1239 7.96715 10.9696 8.14868 10.7742 8.27612C10.5788 8.40356 10.3506 8.47138 10.1173 8.47138C9.88406 8.47138 9.65582 8.40356 9.46038 8.27612C9.26497 8.14868 9.11076 7.96715 9.01653 7.75362C9.00256 7.70636 8.97906 7.66244 8.9475 7.62459C8.91597 7.58674 8.877 7.55574 8.83303 7.53347C8.78909 7.51124 8.74103 7.49821 8.69188 7.49521C8.6427 7.49221 8.59344 7.4993 8.54709 7.51606C7.71147 7.75459 6.95138 8.20465 6.34017 8.82277C6.26841 8.88627 6.22385 8.97503 6.21582 9.07056C6.20779 9.16612 6.23685 9.26109 6.297 9.33571C6.43462 9.52253 6.51588 9.74485 6.53118 9.97644C6.54647 10.208 6.49518 10.4391 6.38335 10.6424C6.23785 10.8869 6.016 11.0766 5.75203 11.1824C5.58047 11.2494 5.39609 11.2771 5.21244 11.2634C5.11329 11.2491 5.01247 11.2738 4.93103 11.3321C4.84959 11.3905 4.79382 11.478 4.77535 11.5766C4.66417 11.99 4.61329 12.4174 4.62426 12.8455C4.61617 13.284 4.667 13.7217 4.77535 14.1468C4.79729 14.2413 4.85526 14.3236 4.93688 14.376C5.01853 14.4284 5.11738 14.4469 5.21244 14.4275C5.44626 14.3881 5.68659 14.4239 5.89888 14.5296C6.11117 14.6354 6.28456 14.8056 6.39412 15.0161C6.50679 15.2182 6.55862 15.4486 6.54329 15.6795C6.52797 15.9104 6.44617 16.132 6.30779 16.3174C6.24206 16.3948 6.20967 16.4951 6.21776 16.5963C6.22585 16.6976 6.27376 16.7914 6.35097 16.8574C6.98656 17.4669 7.75776 17.9166 8.60106 18.1695C8.69479 18.1947 8.79459 18.1844 8.8812 18.1406C8.96785 18.0967 9.03526 18.0224 9.0705 17.9319C9.16447 17.723 9.31579 17.5451 9.50682 17.419C9.69788 17.2928 9.92082 17.2235 10.1497 17.2192C10.1872 17.2133 10.2254 17.2133 10.263 17.2192C10.4741 17.2387 10.6763 17.314 10.8488 17.4373C11.0214 17.5606 11.1581 17.7276 11.2451 17.9211C11.2737 17.9908 11.3222 18.0505 11.3846 18.0928C11.447 18.135 11.5204 18.158 11.5958 18.1587H11.7145C12.5557 17.9065 13.3263 17.4609 13.9646 16.8574C14.0402 16.7899 14.0861 16.6953 14.0921 16.5941C14.0982 16.4929 14.064 16.3934 13.9969 16.3174C13.8621 16.1301 13.7834 15.9082 13.77 15.6777C13.7566 15.4473 13.8091 15.2178 13.9214 15.0161C14.0461 14.8186 14.223 14.6595 14.4326 14.5566C14.6421 14.4536 14.8761 14.4108 15.1085 14.4329C15.2088 14.4442 15.3096 14.417 15.3907 14.3569C15.4718 14.2968 15.5271 14.2082 15.5456 14.109C15.652 13.6836 15.7027 13.2461 15.6967 12.8076C15.6757 12.3754 15.6014 11.9474 15.4754 11.5334ZM8.42838 14.2979C8.39491 14.3378 8.35259 14.3693 8.30482 14.3899C8.25706 14.4105 8.20515 14.4197 8.1532 14.4167C8.1007 14.4179 8.04856 14.4079 8.0002 14.3874C7.95185 14.3669 7.90835 14.3364 7.87262 14.2979L6.69629 13.11C6.62512 13.0382 6.58517 12.9412 6.58517 12.8401C6.58517 12.7389 6.62512 12.6419 6.69629 12.5701L7.878 11.3822C7.91888 11.3407 7.96918 11.3097 8.02462 11.2918C8.08003 11.2739 8.13897 11.2698 8.19635 11.2796C8.2842 11.2884 8.36717 11.3242 8.43379 11.3822C8.4547 11.4031 8.47282 11.4267 8.48773 11.4524C8.53882 11.5263 8.56147 11.6161 8.55156 11.7054C8.54165 11.7947 8.49982 11.8774 8.43379 11.9383L7.55423 12.8401L8.46076 13.7472C8.49632 13.7847 8.52385 13.8291 8.54159 13.8777C8.55932 13.9263 8.56691 13.978 8.56385 14.0296C8.56082 14.0812 8.54723 14.1317 8.52394 14.1778C8.50065 14.224 8.46812 14.2649 8.42838 14.2979ZM11.2612 11.4146L9.93923 14.0604L9.68562 14.6003C9.65759 14.6705 9.60918 14.7306 9.54668 14.7729C9.48415 14.8153 9.41038 14.8379 9.33488 14.8379C9.25397 14.8379 9.21618 14.8379 9.18382 14.8001C9.13644 14.7805 9.09394 14.7508 9.05929 14.713C9.02468 14.6752 8.9987 14.6303 8.98329 14.5814C8.96785 14.5325 8.96332 14.4809 8.97 14.43C8.97668 14.3791 8.99441 14.3304 9.02194 14.2871L9.42123 13.4826L10.6029 11.123C10.6212 11.0711 10.6515 11.0244 10.6914 10.9866C10.7314 10.9489 10.7797 10.9211 10.8325 10.9059C10.8853 10.8905 10.9409 10.888 10.9948 10.8986C11.0488 10.9091 11.0994 10.9324 11.1425 10.9664C11.21 11.0167 11.2585 11.0884 11.28 11.1697C11.3016 11.2511 11.295 11.3374 11.2612 11.4146ZM13.5437 13.11L12.362 14.2979C12.3272 14.3376 12.2839 14.3689 12.2353 14.3894C12.1867 14.41 12.1341 14.4193 12.0814 14.4167C12.029 14.4175 11.9769 14.4074 11.9286 14.3869C11.8803 14.3665 11.8368 14.3362 11.8008 14.2979C11.7309 14.2255 11.6919 14.1287 11.6919 14.028C11.6919 13.9273 11.7309 13.8305 11.8008 13.758L12.7127 12.8509L11.8008 11.9383C11.7501 11.8635 11.7271 11.7734 11.7356 11.6834C11.7441 11.5934 11.7838 11.5091 11.8476 11.4452C11.9115 11.3813 11.9957 11.3416 12.0856 11.3331C12.1756 11.3246 12.2656 11.3476 12.3404 11.3984L13.5221 12.5863C13.5597 12.6181 13.5902 12.6574 13.6118 12.7017C13.6334 12.7459 13.6456 12.7942 13.6476 12.8434C13.6497 12.8926 13.6415 12.9417 13.6236 12.9876C13.6057 13.0335 13.5785 13.0752 13.5437 13.11Z" fill="white"/>
</g>
<defs>
<clipPath id="clip0_124_264">
<rect width="24.1176" height="25" fill="white"/>
</clipPath>
</defs>
</svg>
